<svg width="18" height="22" viewBox="0 0 18 22" fill="none" xmlns="http://www.w3.org/2000/svg">
<path d="M17.5 4.75H16.25V19.125C16.25 19.3854 16.2012 19.6296 16.1035 19.8574C16.0059 20.0853 15.8724 20.2839 15.7031 20.4531C15.5339 20.6224 15.3353 20.7559 15.1074 20.8535C14.8796 20.9512 14.6354 21 14.375 21H4.375C4.11458 21 3.87044 20.9512 3.64258 20.8535C3.41471 20.7559 3.21615 20.6224 3.04688 20.4531C2.8776 20.2839 2.74414 20.0853 2.64648 19.8574C2.54883 19.6296 2.5 19.3854 2.5 19.125V4.75H1.25V3.5H6.25V2.25C6.25 2.07422 6.28255 1.91146 6.34766 1.76172C6.41276 1.61198 6.50065 1.48177 6.61133 1.37109C6.72852 1.25391 6.86198 1.16276 7.01172 1.09766C7.16146 1.03255 7.32422 1 7.5 1H11.25C11.4258 1 11.5885 1.03255 11.7383 1.09766C11.888 1.16276 12.0182 1.25391 12.1289 1.37109C12.2461 1.48177 12.3372 1.61198 12.4023 1.76172C12.4674 1.91146 12.5 2.07422 12.5 2.25V3.5H17.5V4.75ZM7.5 3.5H11.25V2.25H7.5V3.5ZM15 4.75H3.75V19.125C3.75 19.2943 3.81185 19.4408 3.93555 19.5645C4.05924 19.6882 4.20573 19.75 4.375 19.75H14.375C14.5443 19.75 14.6908 19.6882 14.8145 19.5645C14.9382 19.4408 15 19.2943 15 19.125V4.75ZM7.5 17.25H6.25V7.25H7.5V17.25ZM10 17.25H8.75V7.25H10V17.25ZM12.5 17.25H11.25V7.25H12.5V17.25Z" fill="black"/>
<path d="M17.5 4.75V5.25H18V4.75H17.5ZM16.25 4.75V4.25H15.75V4.75H16.25ZM15.7031 20.4531L15.3496 20.0996L15.7031 20.4531ZM2.64648 19.8574L2.18691 20.0544L2.64648 19.8574ZM2.5 4.75H3V4.25H2.5V4.75ZM1.25 4.75H0.75V5.25H1.25V4.75ZM1.25 3.5V3H0.75V3.5H1.25ZM6.25 3.5V4H6.75V3.5H6.25ZM6.61133 1.37109L6.96488 1.72465L6.61133 1.37109ZM12.1289 1.37109L11.7654 1.71441L11.7752 1.72479L11.7856 1.7346L12.1289 1.37109ZM12.5 3.5H12V4H12.5V3.5ZM17.5 3.5H18V3H17.5V3.5ZM7.5 3.5H7V4H7.5V3.5ZM11.25 3.5V4H11.75V3.5H11.25ZM11.25 2.25H11.75V1.75H11.25V2.25ZM7.5 2.25V1.75H7V2.25H7.5ZM15 4.75H15.5V4.25H15V4.75ZM3.75 4.75V4.25H3.25V4.75H3.75ZM7.5 17.25V17.75H8V17.25H7.5ZM6.25 17.25H5.75V17.75H6.25V17.25ZM6.25 7.25V6.75H5.75V7.25H6.25ZM7.5 7.25H8V6.75H7.5V7.25ZM10 17.25V17.75H10.5V17.25H10ZM8.75 17.25H8.25V17.75H8.75V17.25ZM8.75 7.25V6.75H8.25V7.25H8.75ZM10 7.25H10.5V6.75H10V7.25ZM12.5 17.25V17.75H13V17.25H12.5ZM11.25 17.25H10.75V17.75H11.25V17.25ZM11.25 7.25V6.75H10.75V7.25H11.25ZM12.5 7.25H13V6.75H12.5V7.25ZM17.5 4.25H16.25V5.25H17.5V4.25ZM15.75 4.75V19.125H16.75V4.75H15.75ZM15.75 19.125C15.75 19.3212 15.7136 19.498 15.6439 19.6605L16.5631 20.0544C16.6888 19.7612 16.75 19.4496 16.75 19.125H15.75ZM15.6439 19.6605C15.5704 19.832 15.4723 19.9769 15.3496 20.0996L16.0567 20.8067C16.2725 20.5908 16.4413 20.3386 16.5631 20.0544L15.6439 19.6605ZM15.3496 20.0996C15.2269 20.2223 15.082 20.3204 14.9105 20.3939L15.3044 21.3131C15.5886 21.1913 15.8408 21.0225 16.0567 20.8067L15.3496 20.0996ZM14.9105 20.3939C14.748 20.4636 14.5712 20.5 14.375 20.5V21.5C14.6996 21.5 15.0112 21.4388 15.3044 21.3131L14.9105 20.3939ZM14.375 20.5H4.375V21.5H14.375V20.5ZM4.375 20.5C4.17882 20.5 4.00204 20.4636 3.83954 20.3939L3.44562 21.3131C3.73884 21.4388 4.05035 21.5 4.375 21.5V20.5ZM3.83954 20.3939C3.66802 20.3204 3.52312 20.2223 3.40043 20.0996L2.69332 20.8067C2.90917 21.0225 3.16141 21.1913 3.44562 21.3131L3.83954 20.3939ZM3.40043 20.0996C3.27774 19.9769 3.17956 19.832 3.10606 19.6605L2.18691 20.0544C2.30872 20.3386 2.47747 20.5908 2.69332 20.8067L3.40043 20.0996ZM3.10606 19.6605C3.03641 19.498 3 19.3212 3 19.125H2C2 19.4496 2.06124 19.7612 2.18691 20.0544L3.10606 19.6605ZM3 19.125V4.75H2V19.125H3ZM2.5 4.25H1.25V5.25H2.5V4.25ZM1.75 4.75V3.5H0.75V4.75H1.75ZM1.25 4H6.25V3H1.25V4ZM6.75 3.5V2.25H5.75V3.5H6.75ZM6.75 2.25C6.75 2.1375 6.77048 2.04321 6.80619 1.96108L5.88912 1.56236C5.79462 1.7797 5.75 2.01094 5.75 2.25H6.75ZM6.80619 1.96108C6.84738 1.86635 6.90047 1.78906 6.96488 1.72465L6.25777 1.01754C6.10084 1.17448 5.97814 1.35761 5.88912 1.56236L6.80619 1.96108ZM6.96488 1.72465C7.03839 1.65114 7.11975 1.5959 7.21108 1.55619L6.81236 0.639121C6.60421 0.729618 6.41864 0.856677 6.25777 1.01754L6.96488 1.72465ZM7.21108 1.55619C7.29321 1.52048 7.3875 1.5 7.5 1.5V0.5C7.26094 0.5 7.0297 0.544623 6.81236 0.639121L7.21108 1.55619ZM7.5 1.5H11.25V0.5H7.5V1.5ZM11.25 1.5C11.3625 1.5 11.4568 1.52048 11.5389 1.55619L11.9376 0.639121C11.7203 0.544623 11.4891 0.5 11.25 0.5V1.5ZM11.5389 1.55619C11.6275 1.59473 11.7017 1.64697 11.7654 1.71441L12.4924 1.02778C12.3348 0.860845 12.1485 0.730795 11.9376 0.639121L11.5389 1.55619ZM11.7856 1.7346C11.853 1.79829 11.9053 1.87245 11.9438 1.96108L12.8609 1.56236C12.7692 1.35151 12.6392 1.16525 12.4722 1.00759L11.7856 1.7346ZM11.9438 1.96108C11.9795 2.04321 12 2.1375 12 2.25H13C13 2.01094 12.9554 1.7797 12.8609 1.56236L11.9438 1.96108ZM12 2.25V3.5H13V2.25H12ZM12.5 4H17.5V3H12.5V4ZM17 3.5V4.75H18V3.5H17ZM7.5 4H11.25V3H7.5V4ZM11.75 3.5V2.25H10.75V3.5H11.75ZM11.25 1.75H7.5V2.75H11.25V1.75ZM7 2.25V3.5H8V2.25H7ZM15 4.25H3.75V5.25H15V4.25ZM3.25 4.75V19.125H4.25V4.75H3.25ZM3.25 19.125C3.25 19.4318 3.36803 19.704 3.58199 19.918L4.2891 19.2109C4.25566 19.1775 4.25 19.1568 4.25 19.125H3.25ZM3.58199 19.918C3.79595 20.132 4.06824 20.25 4.375 20.25V19.25C4.34322 19.25 4.32254 19.2443 4.2891 19.2109L3.58199 19.918ZM4.375 20.25H14.375V19.25H4.375V20.25ZM14.375 20.25C14.6818 20.25 14.954 20.132 15.168 19.918L14.4609 19.2109C14.4275 19.2443 14.4068 19.25 14.375 19.25V20.25ZM15.168 19.918C15.382 19.704 15.5 19.4318 15.5 19.125H14.5C14.5 19.1568 14.4943 19.1775 14.4609 19.2109L15.168 19.918ZM15.5 19.125V4.75H14.5V19.125H15.5ZM7.5 16.75H6.25V17.75H7.5V16.75ZM6.75 17.25V7.25H5.75V17.25H6.75ZM6.25 7.75H7.5V6.75H6.25V7.75ZM7 7.25V17.25H8V7.25H7ZM10 16.75H8.75V17.75H10V16.75ZM9.25 17.25V7.25H8.25V17.25H9.25ZM8.75 7.75H10V6.75H8.75V7.75ZM9.5 7.25V17.25H10.5V7.25H9.5ZM12.5 16.75H11.25V17.75H12.5V16.75ZM11.75 17.25V7.25H10.75V17.25H11.75ZM11.25 7.75H12.5V6.75H11.25V7.75ZM12 7.25V17.25H13V7.25H12Z" fill="black"/>
</svg>
