<svg width="11" height="16" viewBox="0 0 11 16" fill="none" xmlns="http://www.w3.org/2000/svg">
<path d="M1.625 15V14.125H9.5V15H1.625ZM9.80762 8.30762L5.5625 12.5869L1.31738 8.30762L1.93262 7.69238L5.125 10.9053V1H6V10.9053L9.19238 7.69238L9.80762 8.30762Z" fill="black"/>
<path d="M1.625 15H1.125V15.5H1.625V15ZM1.625 14.125V13.625H1.125V14.125H1.625ZM9.5 14.125H10V13.625H9.5V14.125ZM9.5 15V15.5H10V15H9.5ZM9.80762 8.30762L10.1626 8.65975L10.5133 8.3062L10.1612 7.95406L9.80762 8.30762ZM5.5625 12.5869L5.20753 12.939L5.5625 13.2969L5.91747 12.939L5.5625 12.5869ZM1.31738 8.30762L0.963829 7.95406L0.611691 8.3062L0.962415 8.65975L1.31738 8.30762ZM1.93262 7.69238L2.2873 7.33996L1.93375 6.98414L1.57906 7.33883L1.93262 7.69238ZM5.125 10.9053L4.77032 11.2577L5.625 12.1179V10.9053H5.125ZM5.125 1V0.5H4.625V1H5.125ZM6 1H6.5V0.5H6V1ZM6 10.9053H5.5V12.1179L6.35468 11.2577L6 10.9053ZM9.19238 7.69238L9.54594 7.33883L9.19125 6.98414L8.8377 7.33996L9.19238 7.69238ZM2.125 15V14.125H1.125V15H2.125ZM1.625 14.625H9.5V13.625H1.625V14.625ZM9 14.125V15H10V14.125H9ZM9.5 14.5H1.625V15.5H9.5V14.5ZM9.45265 7.95548L5.20753 12.2348L5.91747 12.939L10.1626 8.65975L9.45265 7.95548ZM5.91747 12.2348L1.67235 7.95548L0.962415 8.65975L5.20753 12.939L5.91747 12.2348ZM1.67094 8.66117L2.28617 8.04594L1.57906 7.33883L0.963829 7.95406L1.67094 8.66117ZM1.57793 8.0448L4.77032 11.2577L5.47968 10.5529L2.2873 7.33996L1.57793 8.0448ZM5.625 10.9053V1H4.625V10.9053H5.625ZM5.125 1.5H6V0.5H5.125V1.5ZM5.5 1V10.9053H6.5V1H5.5ZM6.35468 11.2577L9.54707 8.0448L8.8377 7.33996L5.64532 10.5529L6.35468 11.2577ZM8.83883 8.04594L9.45406 8.66117L10.1612 7.95406L9.54594 7.33883L8.83883 8.04594Z" fill="black"/>
</svg>
