<svg width="22" height="22" viewBox="0 0 22 22" fill="none" xmlns="http://www.w3.org/2000/svg">
<path d="M20.8145 19.9355C20.9382 20.0592 21 20.2057 21 20.375C21 20.5443 20.9382 20.6908 20.8145 20.8145C20.6908 20.9382 20.5443 21 20.375 21C20.2057 21 20.0592 20.9382 19.9355 20.8145L12.2695 13.1582C11.6445 13.6725 10.9577 14.0664 10.209 14.3398C9.4668 14.6133 8.6888 14.75 7.875 14.75C7.24349 14.75 6.63477 14.6686 6.04883 14.5059C5.46289 14.3431 4.91602 14.112 4.4082 13.8125C3.90039 13.513 3.4349 13.1549 3.01172 12.7383C2.59505 12.3151 2.23698 11.8496 1.9375 11.3418C1.63802 10.834 1.4069 10.2871 1.24414 9.70117C1.08138 9.11523 1 8.50651 1 7.875C1 7.24349 1.08138 6.63477 1.24414 6.04883C1.4069 5.46289 1.63802 4.91602 1.9375 4.4082C2.23698 3.90039 2.59505 3.43815 3.01172 3.02148C3.4349 2.59831 3.90039 2.23698 4.4082 1.9375C4.91602 1.63802 5.46289 1.4069 6.04883 1.24414C6.63477 1.08138 7.24349 1 7.875 1C8.50651 1 9.11523 1.08138 9.70117 1.24414C10.2871 1.4069 10.834 1.63802 11.3418 1.9375C11.8496 2.23698 12.3118 2.59831 12.7285 3.02148C13.1517 3.43815 13.513 3.90039 13.8125 4.4082C14.112 4.91602 14.3431 5.46289 14.5059 6.04883C14.6686 6.63477 14.75 7.24349 14.75 7.875C14.75 8.6888 14.6133 9.47005 14.3398 10.2188C14.0664 10.9609 13.6725 11.6445 13.1582 12.2695L20.8145 19.9355ZM7.875 13.5C8.64974 13.5 9.37891 13.3535 10.0625 13.0605C10.7461 12.7611 11.3418 12.3574 11.8496 11.8496C12.3574 11.3418 12.7578 10.7461 13.0508 10.0625C13.3503 9.37891 13.5 8.64974 13.5 7.875C13.5 7.10026 13.3503 6.37109 13.0508 5.6875C12.7578 5.00391 12.3574 4.4082 11.8496 3.90039C11.3418 3.39258 10.7461 2.99219 10.0625 2.69922C9.37891 2.39974 8.64974 2.25 7.875 2.25C7.10026 2.25 6.37109 2.39974 5.6875 2.69922C5.00391 2.99219 4.4082 3.39258 3.90039 3.90039C3.39258 4.4082 2.98893 5.00391 2.68945 5.6875C2.39648 6.37109 2.25 7.10026 2.25 7.875C2.25 8.64974 2.39648 9.37891 2.68945 10.0625C2.98893 10.7461 3.39258 11.3418 3.90039 11.8496C4.4082 12.3574 5.00391 12.7611 5.6875 13.0605C6.37109 13.3535 7.10026 13.5 7.875 13.5ZM8.5 7.25H11V8.5H8.5V11H7.25V8.5H4.75V7.25H7.25V4.75H8.5V7.25Z" fill="black"/>
<path d="M20.8145 19.9355L20.4607 20.2889L20.4609 20.2891L20.8145 19.9355ZM19.9355 20.8145L20.2891 20.4609L20.2889 20.4607L19.9355 20.8145ZM12.2695 13.1582L12.6229 12.8044L12.302 12.484L11.9518 12.7721L12.2695 13.1582ZM10.209 14.3398L10.0375 13.8702L10.0361 13.8707L10.209 14.3398ZM3.01172 12.7383L2.65539 13.0891L2.66092 13.0946L3.01172 12.7383ZM3.01172 3.02148L2.65817 2.66793L3.01172 3.02148ZM12.7285 3.02148L12.3722 3.37233L12.3777 3.37777L12.7285 3.02148ZM14.3398 10.2188L14.809 10.3916L14.8095 10.3903L14.3398 10.2188ZM13.1582 12.2695L12.7721 11.9518L12.484 12.302L12.8044 12.6229L13.1582 12.2695ZM10.0625 13.0605L10.2595 13.5201L10.2631 13.5185L10.0625 13.0605ZM13.0508 10.0625L12.5928 9.86186L12.5912 9.86554L13.0508 10.0625ZM13.0508 5.6875L12.5912 5.88447L12.5928 5.88814L13.0508 5.6875ZM10.0625 2.69922L9.86186 3.15721L9.86554 3.15879L10.0625 2.69922ZM5.6875 2.69922L5.88447 3.15881L5.88814 3.1572L5.6875 2.69922ZM2.68945 5.6875L2.23146 5.48686L2.22988 5.49054L2.68945 5.6875ZM2.68945 10.0625L2.22987 10.2595L2.23147 10.2631L2.68945 10.0625ZM5.6875 13.0605L5.48686 13.5185L5.49054 13.5201L5.6875 13.0605ZM8.5 7.25H8V7.75H8.5V7.25ZM11 7.25H11.5V6.75H11V7.25ZM11 8.5V9H11.5V8.5H11ZM8.5 8.5V8H8V8.5H8.5ZM8.5 11V11.5H9V11H8.5ZM7.25 11H6.75V11.5H7.25V11ZM7.25 8.5H7.75V8H7.25V8.5ZM4.75 8.5H4.25V9H4.75V8.5ZM4.75 7.25V6.75H4.25V7.25H4.75ZM7.25 7.25V7.75H7.75V7.25H7.25ZM7.25 4.75V4.25H6.75V4.75H7.25ZM8.5 4.75H9V4.25H8.5V4.75ZM20.4609 20.2891C20.4943 20.3225 20.5 20.3432 20.5 20.375H21.5C21.5 20.0682 21.382 19.796 21.168 19.582L20.4609 20.2891ZM20.5 20.375C20.5 20.4068 20.4943 20.4275 20.4609 20.4609L21.168 21.168C21.382 20.954 21.5 20.6818 21.5 20.375H20.5ZM20.4609 20.4609C20.4275 20.4943 20.4068 20.5 20.375 20.5V21.5C20.6818 21.5 20.954 21.382 21.168 21.168L20.4609 20.4609ZM20.375 20.5C20.3432 20.5 20.3225 20.4943 20.2891 20.4609L19.582 21.168C19.796 21.382 20.0682 21.5 20.375 21.5V20.5ZM20.2889 20.4607L12.6229 12.8044L11.9162 13.512L19.5822 21.1682L20.2889 20.4607ZM11.9518 12.7721C11.3698 13.2511 10.7322 13.6164 10.0375 13.8702L10.3805 14.8095C11.1831 14.5164 11.9193 14.094 12.5872 13.5443L11.9518 12.7721ZM10.0361 13.8707C9.35089 14.1231 8.63155 14.25 7.875 14.25V15.25C8.74606 15.25 9.5827 15.1034 10.3818 14.809L10.0361 13.8707ZM7.875 14.25C7.28697 14.25 6.72336 14.1743 6.18265 14.0241L5.91501 14.9876C6.54617 15.1629 7.20001 15.25 7.875 15.25V14.25ZM6.18265 14.0241C5.6375 13.8727 5.13118 13.6584 4.6622 13.3818L4.15421 14.2432C4.70085 14.5656 5.28829 14.8135 5.91501 14.9876L6.18265 14.0241ZM4.6622 13.3818C4.18983 13.1032 3.7568 12.7702 3.36252 12.382L2.66092 13.0946C3.11299 13.5397 3.61095 13.9228 4.15421 14.2432L4.6622 13.3818ZM3.368 12.3875C2.97978 11.9932 2.64676 11.5602 2.36818 11.0878L1.50682 11.5958C1.8272 12.1391 2.21032 12.637 2.65544 13.0891L3.368 12.3875ZM2.36818 11.0878C2.0916 10.6188 1.87733 10.1125 1.7259 9.56735L0.762382 9.83499C0.936471 10.4617 1.18444 11.0492 1.50682 11.5958L2.36818 11.0878ZM1.7259 9.56735C1.5757 9.02664 1.5 8.46303 1.5 7.875H0.5C0.5 8.54999 0.587058 9.20383 0.762382 9.83499L1.7259 9.56735ZM1.5 7.875C1.5 7.28697 1.5757 6.72336 1.7259 6.18265L0.762382 5.91501C0.587058 6.54617 0.5 7.20001 0.5 7.875H1.5ZM1.7259 6.18265C1.87733 5.6375 2.0916 5.13118 2.36818 4.6622L1.50682 4.15421C1.18444 4.70085 0.936471 5.28829 0.762382 5.91501L1.7259 6.18265ZM2.36818 4.6622C2.64626 4.19067 2.97842 3.76189 3.36527 3.37504L2.65817 2.66793C2.21168 3.11442 1.8277 3.61011 1.50682 4.15421L2.36818 4.6622ZM3.36527 3.37504C3.7591 2.98121 4.19124 2.64593 4.6622 2.36818L4.15421 1.50682C3.60954 1.82803 3.11069 2.21541 2.65817 2.66793L3.36527 3.37504ZM4.6622 2.36818C5.13118 2.0916 5.6375 1.87733 6.18265 1.7259L5.91501 0.762382C5.28829 0.936471 4.70085 1.18444 4.15421 1.50682L4.6622 2.36818ZM6.18265 1.7259C6.72336 1.5757 7.28697 1.5 7.875 1.5V0.5C7.20001 0.5 6.54617 0.587058 5.91501 0.762382L6.18265 1.7259ZM7.875 1.5C8.46303 1.5 9.02664 1.5757 9.56735 1.7259L9.83499 0.762382C9.20383 0.587058 8.54999 0.5 7.875 0.5V1.5ZM9.56735 1.7259C10.1125 1.87733 10.6188 2.0916 11.0878 2.36818L11.5958 1.50682C11.0492 1.18444 10.4617 0.936471 9.83499 0.762382L9.56735 1.7259ZM11.0878 2.36818C11.5579 2.64543 11.9858 2.97984 12.3722 3.37229L13.0848 2.67068C12.6379 2.21678 12.1413 1.82853 11.5958 1.50682L11.0878 2.36818ZM12.3777 3.37777C12.7702 3.76418 13.1046 4.19208 13.3818 4.6622L14.2432 4.15421C13.9215 3.6087 13.5332 3.11212 13.0793 2.6652L12.3777 3.37777ZM13.3818 4.6622C13.6584 5.13118 13.8727 5.6375 14.0241 6.18265L14.9876 5.91501C14.8135 5.28829 14.5656 4.70085 14.2432 4.15421L13.3818 4.6622ZM14.0241 6.18265C14.1743 6.72336 14.25 7.28697 14.25 7.875H15.25C15.25 7.20001 15.1629 6.54617 14.9876 5.91501L14.0241 6.18265ZM14.25 7.875C14.25 8.63154 14.1231 9.35465 13.8702 10.0472L14.8095 10.3903C15.1034 9.58546 15.25 8.74606 15.25 7.875H14.25ZM13.8707 10.0459C13.6171 10.7342 13.2517 11.3691 12.7721 11.9518L13.5443 12.5872C14.0934 11.92 14.5157 11.1876 14.809 10.3916L13.8707 10.0459ZM12.8044 12.6229L20.4607 20.2889L21.1682 19.5822L13.512 11.9162L12.8044 12.6229ZM7.875 14C8.71457 14 9.51103 13.8409 10.2595 13.5201L9.86554 12.601C9.24678 12.8662 8.58491 13 7.875 13V14ZM10.2631 13.5185C11.0015 13.1951 11.6496 12.7567 12.2032 12.2032L11.4961 11.4961C11.034 11.9581 10.4907 12.3271 9.86186 12.6026L10.2631 13.5185ZM12.2032 12.2032C12.7576 11.6488 13.1932 10.9994 13.5104 10.2595L12.5912 9.86554C12.3224 10.4928 11.9573 11.0348 11.4961 11.4961L12.2032 12.2032ZM13.5088 10.2631C13.837 9.51387 14 8.71611 14 7.875H13C13 8.58337 12.8635 9.24395 12.5928 9.86186L13.5088 10.2631ZM14 7.875C14 7.03389 13.837 6.23613 13.5088 5.48686L12.5928 5.88814C12.8635 6.50605 13 7.16663 13 7.875H14ZM13.5104 5.49054C13.1932 4.7506 12.7576 4.10123 12.2032 3.54684L11.4961 4.25394C11.9573 4.71517 12.3224 5.25721 12.5912 5.88446L13.5104 5.49054ZM12.2032 3.54684C11.6488 2.99244 10.9994 2.55676 10.2595 2.23965L9.86554 3.15879C10.4928 3.42761 11.0348 3.79271 11.4961 4.25394L12.2032 3.54684ZM10.2631 2.24124C9.51387 1.91299 8.71611 1.75 7.875 1.75V2.75C8.58337 2.75 9.24395 2.88649 9.86186 3.1572L10.2631 2.24124ZM7.875 1.75C7.03389 1.75 6.23613 1.91299 5.48686 2.24124L5.88814 3.1572C6.50605 2.88649 7.16663 2.75 7.875 2.75V1.75ZM5.49054 2.23965C4.7506 2.55676 4.10123 2.99244 3.54684 3.54684L4.25394 4.25394C4.71517 3.79271 5.25721 3.42761 5.88446 3.15879L5.49054 2.23965ZM3.54684 3.54684C2.99328 4.1004 2.55494 4.74851 2.23147 5.48686L3.14743 5.88814C3.42292 5.2593 3.79188 4.71601 4.25394 4.25394L3.54684 3.54684ZM2.22988 5.49054C1.90913 6.23897 1.75 7.03543 1.75 7.875H2.75C2.75 7.16509 2.88384 6.50322 3.14903 5.88446L2.22988 5.49054ZM1.75 7.875C1.75 8.71457 1.90913 9.51103 2.22988 10.2595L3.14903 9.86554C2.88384 9.24678 2.75 8.58491 2.75 7.875H1.75ZM2.23147 10.2631C2.55494 11.0015 2.99328 11.6496 3.54684 12.2032L4.25394 11.4961C3.79188 11.034 3.42292 10.4907 3.14743 9.86186L2.23147 10.2631ZM3.54684 12.2032C4.1004 12.7567 4.74851 13.1951 5.48686 13.5185L5.88814 12.6026C5.2593 12.3271 4.71601 11.9581 4.25394 11.4961L3.54684 12.2032ZM5.49054 13.5201C6.23897 13.8409 7.03543 14 7.875 14V13C7.16509 13 6.50322 12.8662 5.88446 12.601L5.49054 13.5201ZM8.5 7.75H11V6.75H8.5V7.75ZM10.5 7.25V8.5H11.5V7.25H10.5ZM11 8H8.5V9H11V8ZM8 8.5V11H9V8.5H8ZM8.5 10.5H7.25V11.5H8.5V10.5ZM7.75 11V8.5H6.75V11H7.75ZM7.25 8H4.75V9H7.25V8ZM5.25 8.5V7.25H4.25V8.5H5.25ZM4.75 7.75H7.25V6.75H4.75V7.75ZM7.75 7.25V4.75H6.75V7.25H7.75ZM7.25 5.25H8.5V4.25H7.25V5.25ZM8 4.75V7.25H9V4.75H8Z" fill="black"/>
</svg>
