<svg width="30" height="30" viewBox="0 0 30 30" fill="none" xmlns="http://www.w3.org/2000/svg">
<path opacity="0.6" d="M30 4.90723C30 5.55176 29.8779 6.17676 29.6338 6.78223C29.3896 7.3877 29.0332 7.9248 28.5645 8.39355L9.27246 27.6855L0 30L2.31445 20.7275L21.6064 1.43555C22.0752 0.966797 22.6123 0.610352 23.2178 0.366211C23.8232 0.12207 24.4482 0 25.0928 0C25.7666 0 26.4014 0.131836 26.9971 0.395508C27.5928 0.649414 28.1104 1.00098 28.5498 1.4502C28.999 1.88965 29.3506 2.40723 29.6045 3.00293C29.8682 3.59863 30 4.2334 30 4.90723ZM4.77539 20.918C5.81055 21.2598 6.69922 21.8066 7.44141 22.5586C8.19336 23.3008 8.74023 24.1895 9.08203 25.2246L24.917 9.375L20.625 5.08301L4.77539 20.918ZM2.57812 27.4219L7.39746 26.2207C7.2998 25.7715 7.13867 25.3467 6.91406 24.9463C6.69922 24.5459 6.43555 24.1895 6.12305 23.877C5.81055 23.5645 5.4541 23.3008 5.05371 23.0859C4.65332 22.8613 4.22852 22.7002 3.7793 22.6025L2.57812 27.4219ZM26.25 8.04199C26.4941 7.79785 26.7285 7.56836 26.9531 7.35352C27.1777 7.13867 27.3779 6.91406 27.5537 6.67969C27.7295 6.43555 27.8662 6.17676 27.9639 5.90332C28.0713 5.62012 28.125 5.29297 28.125 4.92188C28.125 4.50195 28.042 4.11133 27.876 3.75C27.7197 3.37891 27.5 3.05664 27.2168 2.7832C26.9434 2.5 26.6211 2.28027 26.25 2.12402C25.8887 1.95801 25.498 1.875 25.0781 1.875C24.707 1.875 24.3799 1.92871 24.0967 2.03613C23.8232 2.13379 23.5645 2.27051 23.3203 2.44629C23.0859 2.62207 22.8613 2.82227 22.6465 3.04688C22.4316 3.27148 22.2021 3.50586 21.958 3.75L26.25 8.04199Z" fill="black"/>
</svg>
